<?xml version="1.0" encoding="UTF-8"?>
<svg xmlns="http://www.w3.org/2000/svg" xmlns:xlink="http://www.w3.org/1999/xlink" width="24px" height="25px" viewBox="0 0 24 24" version="1.1">
<g id="surface1">
<path style=" stroke:none;fill-rule:nonzero;fill:rgb(11.764706%,84.313725%,37.647059%);fill-opacity:1;" d="M 12 0.375 C 5.375 0.375 0 5.582031 0 12 C 0 18.417969 5.375 23.625 12 23.625 C 18.625 23.625 24 18.417969 24 12 C 24 5.582031 18.625 0.375 12 0.375 Z M 12 0.375 "/>
<path style=" stroke:none;fill-rule:nonzero;fill:rgb(0%,0%,0%);fill-opacity:1;" d="M 19.675781 10.832031 C 19.421875 10.832031 19.269531 10.773438 19.050781 10.648438 C 15.605469 8.65625 9.445312 8.179688 5.457031 9.257812 C 5.285156 9.304688 5.066406 9.378906 4.832031 9.378906 C 4.195312 9.378906 3.707031 8.898438 3.707031 8.273438 C 3.707031 7.636719 4.113281 7.273438 4.546875 7.152344 C 6.25 6.671875 8.15625 6.441406 10.234375 6.441406 C 13.765625 6.441406 17.46875 7.152344 20.171875 8.679688 C 20.550781 8.890625 20.796875 9.183594 20.796875 9.742188 C 20.796875 10.378906 20.265625 10.832031 19.675781 10.832031 Z M 18.175781 14.40625 C 17.921875 14.40625 17.753906 14.296875 17.578125 14.207031 C 14.554688 12.472656 10.046875 11.773438 6.035156 12.828125 C 5.800781 12.890625 5.675781 12.953125 5.457031 12.953125 C 4.941406 12.953125 4.519531 12.542969 4.519531 12.042969 C 4.519531 11.539062 4.769531 11.207031 5.269531 11.070312 C 6.613281 10.707031 7.988281 10.433594 10 10.433594 C 13.140625 10.433594 16.175781 11.1875 18.566406 12.566406 C 18.957031 12.792969 19.113281 13.082031 19.113281 13.492188 C 19.109375 13.996094 18.703125 14.40625 18.175781 14.40625 Z M 16.871094 17.480469 C 16.667969 17.480469 16.542969 17.417969 16.355469 17.3125 C 13.335938 15.546875 9.824219 15.472656 6.351562 16.164062 C 6.164062 16.210938 5.917969 16.285156 5.777344 16.285156 C 5.308594 16.285156 5.011719 15.921875 5.011719 15.542969 C 5.011719 15.0625 5.308594 14.832031 5.671875 14.757812 C 9.632812 13.90625 13.683594 13.984375 17.140625 15.984375 C 17.433594 16.167969 17.609375 16.332031 17.609375 16.757812 C 17.609375 17.183594 17.265625 17.480469 16.871094 17.480469 Z M 16.871094 17.480469 "/>
</g>
</svg>
